<svg xmlns="http://www.w3.org/2000/svg">
    <symbol id="icon-box" viewBox="0 0 24 24" fill="none" stroke="currentColor" stroke-width="2" stroke-linecap="round" stroke-linejoin="round">
        <path d="M21 16V8a2 2 0 0 0-1-1.73l-7-4a2 2 0 0 0-2 0l-7 4A2 2 0 0 0 3 8v8a2 2 0 0 0 1 1.73l7 4a2 2 0 0 0 2 0l7-4A2 2 0 0 0 21 16z"></path><polyline points="3.27 6.96 12 12.01 20.73 6.96"></polyline><line x1="12" y1="22.08" x2="12" y2="12"></line>
    </symbol>
    <symbol id="icon-divide" viewBox="0 0 24 24"  fill="none" stroke="currentColor" stroke-width="0" stroke-linecap="round" stroke-linejoin="round">
        <path d="M10 13.0002C10.5523 13.0002 11 12.5525 11 12.0002C11 11.448 10.5523 11.0002 10 11.0002C9.44771 11.0002 9 11.448 9 12.0002C9 12.5525 9.44771 13.0002 10 13.0002Z" fill="currentColor"></path> <path d="M15 12.0002C15 12.5525 14.5523 13.0002 14 13.0002C13.4477 13.0002 13 12.5525 13 12.0002C13 11.448 13.4477 11.0002 14 11.0002C14.5523 11.0002 15 11.448 15 12.0002Z" fill="currentColor"></path> <path d="M8.29289 15.2931C8.68006 14.906 9.30573 14.9026 9.69699 15.2832C9.8449 15.415 10.021 15.5177 10.1972 15.6058C10.5749 15.7947 11.1728 16.0002 12 16.0002C12.8272 16.0002 13.4251 15.7947 13.8028 15.6058C13.979 15.5177 14.1551 15.415 14.303 15.2832C14.6943 14.9026 15.3199 14.906 15.7071 15.2931C16.0976 15.6837 16.0976 16.3168 15.7071 16.7074C15.6303 16.784 15.5522 16.8517 15.4125 16.9565C15.245 17.0821 15.0067 17.2399 14.6972 17.3947C14.0749 17.7058 13.1728 18.0002 12 18.0002C10.8272 18.0002 9.92507 17.7058 9.30278 17.3947C8.99327 17.2399 8.75496 17.0821 8.58749 16.9565C8.44826 16.8521 8.37026 16.7843 8.29359 16.7081C7.90307 16.3175 7.90236 15.6837 8.29289 15.2931Z" fill="currentColor"></path> <path fill-rule="evenodd" clip-rule="evenodd" d="M13.1296 2.80381C13.295 3.09712 13.4047 3.51797 13.1972 4.07117C12.8047 4.02434 12.4051 4.00024 12 4.00024C7.59784 4.00024 3.86005 6.84476 2.52438 10.796C1.07592 11.1461 0 12.4508 0 14.0068C0 15.5645 1.0783 16.8703 2.52918 17.2186C3.86899 21.1625 7.6031 24.0002 12 24.0002C16.3969 24.0002 20.131 21.1625 21.4708 17.2186C22.9217 16.8703 24 15.5645 24 14.0068C24 12.4508 22.9241 11.1461 21.4756 10.796C20.4747 7.83506 18.1249 5.4956 15.1574 4.50892C15.4491 3.53208 15.3113 2.60099 14.8718 1.82153C14.2627 0.741235 13.079 0.000244141 12 0.000244141C11.0671 0.000244141 10.3617 0.35319 9.89902 0.700448C9.66924 0.872899 9.49579 1.04612 9.37674 1.18029C9.31687 1.24776 9.2697 1.30655 9.23506 1.35211C8.88381 1.81421 8.94196 2.49769 9.44638 2.83302C9.9818 3.18895 10.4984 2.92957 10.8727 2.5077C10.92 2.45437 10.9962 2.37759 11.0996 2.30004C11.3031 2.1473 11.5976 2.00024 12 2.00024C12.2562 2.00024 12.8225 2.25915 13.1296 2.80381ZM19.9318 15.5313L21.004 15.2739C21.5763 15.1365 22 14.6186 22 14.0068C22 13.3956 21.5773 12.8782 21.0058 12.7401L19.934 12.4811L19.5809 11.4365C18.5116 8.27312 15.5186 6.00024 12 6.00024C8.48136 6.00024 5.48839 8.27312 4.41906 11.4365L4.06595 12.4811L2.99417 12.7401C2.42271 12.8782 2 13.3956 2 14.0068C2 14.6186 2.42366 15.1365 2.99604 15.2739L4.06821 15.5313L4.42289 16.5753C5.49555 19.7328 8.48558 22.0002 12 22.0002C15.5144 22.0002 18.5044 19.7328 19.5771 16.5753L19.9318 15.5313Z" fill="currentColor"></path>
    </symbol>
    <symbol id="icon-menu" viewBox="0 0 24 24"  fill="none" stroke="currentColor" stroke-width="2" stroke-linecap="round" stroke-linejoin="round">
        <line x1="3" y1="12" x2="21" y2="12"></line><line x1="3" y1="6" x2="21" y2="6"></line><line x1="3" y1="18" x2="21" y2="18"></line>
    </symbol>
    <symbol id="icon-minus" viewBox="0 0 24 24"  fill="none" stroke="currentColor" stroke-width="0" stroke-linecap="round" stroke-linejoin="round">
        <path d="M8.5 11C9.32843 11 10 10.3284 10 9.5C10 8.67157 9.32843 8 8.5 8C7.67157 8 7 8.67157 7 9.5C7 10.3284 7.67157 11 8.5 11Z" fill="currentColor"></path> <path d="M8.88875 13.5414C8.63822 13.0559 8.0431 12.8607 7.553 13.1058C7.05903 13.3528 6.8588 13.9535 7.10579 14.4474C7.18825 14.6118 7.29326 14.7659 7.40334 14.9127C7.58615 15.1565 7.8621 15.4704 8.25052 15.7811C9.04005 16.4127 10.2573 17.0002 12.0002 17.0002C13.7431 17.0002 14.9604 16.4127 15.7499 15.7811C16.1383 15.4704 16.4143 15.1565 16.5971 14.9127C16.7076 14.7654 16.8081 14.6113 16.8941 14.4485C17.1387 13.961 16.9352 13.3497 16.4474 13.1058C15.9573 12.8607 15.3622 13.0559 15.1117 13.5414C15.0979 13.5663 14.9097 13.892 14.5005 14.2194C14.0401 14.5877 13.2573 15.0002 12.0002 15.0002C10.7431 15.0002 9.96038 14.5877 9.49991 14.2194C9.09071 13.892 8.90255 13.5663 8.88875 13.5414Z" fill="currentColor"></path> <path d="M15.5 11C16.3284 11 17 10.3284 17 9.5C17 8.67157 16.3284 8 15.5 8C14.6716 8 14 8.67157 14 9.5C14 10.3284 14.6716 11 15.5 11Z" fill="currentColor"></path> <path fill-rule="evenodd" clip-rule="evenodd" d="M20.9992 5.68421V1.50047C20.9992 0.441867 19.9309 -0.283213 18.9462 0.107037L15.348 1.53306C14.2923 1.19635 13.1674 1.01462 12 1.01462C10.8204 1.01462 9.68413 1.20017 8.61888 1.54367L5.05297 0.130458C4.06827 -0.259791 3 0.465289 3 1.52389V5.68535C1.73994 7.47351 1 9.65406 1 12.0073C1 18.0784 5.92487 23 12 23C18.0751 23 23 18.0784 23 12.0073C23 9.65355 22.2597 7.47258 20.9992 5.68421ZM18.9992 6.36359V2.23615C17.7709 2.72293 15.2922 3.63397 15.2922 3.63397C15.2922 3.63397 13.2846 3.02011 12 3.02011C10.7154 3.02011 8.68671 3.64971 8.68671 3.64971L5 2.25957V6.36459C3.75334 7.90712 3.00683 9.8701 3.00683 12.0073C3.00683 16.9708 7.03321 20.9945 12 20.9945C16.9668 20.9945 20.9932 16.9708 20.9932 12.0073C20.9932 9.86963 20.2463 7.90627 18.9992 6.36359Z" fill="currentColor"></path>
    </symbol>
    <symbol id="icon-plus" viewBox="0 0 24 24"  fill="none" stroke="currentColor" stroke-width="0" stroke-linecap="round" stroke-linejoin="round">
        <path d="M8.5 11C9.32843 11 10 10.3284 10 9.5C10 8.67157 9.32843 8 8.5 8C7.67157 8 7 8.67157 7 9.5C7 10.3284 7.67157 11 8.5 11Z" fill="currentColor"></path> <path d="M17 9.5C17 10.3284 16.3284 11 15.5 11C14.6716 11 14 10.3284 14 9.5C14 8.67157 14.6716 8 15.5 8C16.3284 8 17 8.67157 17 9.5Z" fill="currentColor"></path> <path fill-rule="evenodd" clip-rule="evenodd" d="M8.2 13C7.56149 13 6.9436 13.5362 7.01666 14.2938C7.06054 14.7489 7.2324 15.7884 7.95483 16.7336C8.71736 17.7313 9.99938 18.5 12 18.5C14.0006 18.5 15.2826 17.7313 16.0452 16.7336C16.7676 15.7884 16.9395 14.7489 16.9833 14.2938C17.0564 13.5362 16.4385 13 15.8 13H8.2ZM9.54387 15.5191C9.41526 15.3509 9.31663 15.1731 9.2411 15H14.7589C14.6834 15.1731 14.5847 15.3509 14.4561 15.5191C14.0981 15.9876 13.4218 16.5 12 16.5C10.5782 16.5 9.90187 15.9876 9.54387 15.5191Z" fill="currentColor"></path> <path fill-rule="evenodd" clip-rule="evenodd" d="M12 23C18.0751 23 23 18.0751 23 12C23 5.92487 18.0751 1 12 1C5.92487 1 1 5.92487 1 12C1 18.0751 5.92487 23 12 23ZM12 20.9932C7.03321 20.9932 3.00683 16.9668 3.00683 12C3.00683 7.03321 7.03321 3.00683 12 3.00683C16.9668 3.00683 20.9932 7.03321 20.9932 12C20.9932 16.9668 16.9668 20.9932 12 20.9932Z" fill="currentColor"></path>
    </symbol>
    <symbol id="icon-x" viewBox="0 0 24 24"  fill="none" stroke="currentColor" stroke-width="0" stroke-linecap="round" stroke-linejoin="round">
        <path d="M7.55301 13.1058C8.0431 12.8607 8.63822 13.0559 8.88875 13.5414C8.90255 13.5663 9.09071 13.892 9.49991 14.2194C9.96038 14.5877 10.7431 15.0002 12.0002 15.0002C13.2573 15.0002 14.0401 14.5877 14.5005 14.2194C14.9097 13.892 15.0979 13.5663 15.1117 13.5414C15.3622 13.0559 15.9573 12.8607 16.4474 13.1058C16.9352 13.3497 17.1387 13.961 16.8941 14.4485C16.8081 14.6113 16.7076 14.7654 16.5971 14.9127C16.4143 15.1565 16.1383 15.4704 15.7499 15.7811C14.9604 16.4127 13.7431 17.0002 12.0002 17.0002C10.2573 17.0002 9.04005 16.4127 8.25052 15.7811C7.8621 15.4704 7.58615 15.1565 7.40334 14.9127C7.29326 14.7659 7.18825 14.6118 7.10579 14.4474C6.8588 13.9535 7.05903 13.3528 7.55301 13.1058Z" fill="currentColor"></path> <path fill-rule="evenodd" clip-rule="evenodd" d="M23 12C23 18.0751 18.0751 23 12 23C5.92487 23 1 18.0751 1 12C1 5.92487 5.92487 1 12 1C18.0751 1 23 5.92487 23 12ZM3.00683 12C3.00683 16.9668 7.03321 20.9932 12 20.9932C16.9668 20.9932 20.9932 16.9668 20.9932 12C20.9932 10.8118 20.7627 9.67741 20.3441 8.6391L18.9456 9.57142C18.6788 10.955 17.4615 12 16 12C14.6938 12 13.5825 11.1652 13.1707 10H10.8293C10.4175 11.1652 9.30622 12 8 12C6.53855 12 5.32117 10.955 5.05435 9.57142L3.65588 8.6391C3.23726 9.67741 3.00683 10.8118 3.00683 12ZM4.61103 6.87217L5.44448 7.4278C5.97268 6.57106 6.91965 6 8 6C9.30622 6 10.4175 6.83481 10.8293 8H13.1707C13.5825 6.83481 14.6938 6 16 6C17.0804 6 18.0273 6.57106 18.5555 7.4278L19.389 6.87217C17.7647 4.53605 15.0609 3.00683 12 3.00683C8.93907 3.00683 6.23531 4.53605 4.61103 6.87217ZM6.85236 9C6.85236 9.63382 7.36618 10.1476 8 10.1476C8.63382 10.1476 9.14764 9.63382 9.14764 9C9.14764 8.36618 8.63382 7.85236 8 7.85236C7.36618 7.85236 6.85236 8.36618 6.85236 9ZM16 10.1476C15.3662 10.1476 14.8524 9.63382 14.8524 9C14.8524 8.36618 15.3662 7.85236 16 7.85236C16.6338 7.85236 17.1476 8.36618 17.1476 9C17.1476 9.63382 16.6338 10.1476 16 10.1476Z" fill="currentColor"></path>
    </symbol>
</svg>
